# xmcd CD database file
#
# Track frame offsets:
#	150
#	14419
#	36939
#	56827
#	80009
#	102399
#	120953
#	143282
#	168558
#	198162
#
# Disc length: 2938 seconds
#
# Revision: 0
# Processed by: cddbd v1.5.2PL0 Copyright (c) Steve Scherf et al.
# Submitted via: CDex 1.51
#
DISCID=7e0b780a
DTITLE=藤井康一 X 関ヒトシ4 - Little Jive Boys
DYEAR=2001
DGENRE=Jive
TTITLE0=リトル・ジャイヴ・ボーイズ
TTITLE1=ホルモン
TTITLE2=シナの夜
TTITLE3=アラビアの唄
TTITLE4=プリーズ
TTITLE5=イオンの子守唄
TTITLE6=嘘は罪 (It's A Sin To Tell A Lie)
TTITLE7=サックス・ハラスメント
TTITLE8=ピンガでヘベレケ
TTITLE9=さよなら
EXTD=YEAR: 2001
EXTT0=
EXTT1=
EXTT2=
EXTT3=
EXTT4=
EXTT5=
EXTT6=
EXTT7=
EXTT8=
EXTT9=
PLAYORDER=
